<?xml version="1.0" encoding="utf-8"?>
<!-- Generator: Adobe Illustrator 26.5.0, SVG Export Plug-In . SVG Version: 6.00 Build 0)  -->
<svg version="1.1" id="Capa_1" xmlns="http://www.w3.org/2000/svg" xmlns:xlink="http://www.w3.org/1999/xlink" x="0px" y="0px"
	 viewBox="0 0 20 20" style="enable-background:new 0 0 20 20;" xml:space="preserve">
<style type="text/css">
	.st0{fill:#004987;}
</style>
<g>
	<g id="Edges_00000075883418296792797490000014529740389575053448_">
	</g>
	<g id="Symbol_00000054258778171414972970000012908887813656988034_">
		<g>
			<path class="st0" d="M3.4,0.5C2.8,0.8,2.2,1.1,1.7,1.7C1.1,2.2,0.8,2.8,0.5,3.4C0.3,4.1,0.1,4.8,0.1,5.9S0,7.3,0,10
				s0,3.1,0.1,4.1c0,1.1,0.2,1.8,0.5,2.4c0.3,0.7,0.6,1.2,1.2,1.8s1.1,0.9,1.8,1.2c0.6,0.2,1.4,0.4,2.4,0.5S7.3,20,10,20
				s3.1,0,4.1-0.1c1.1,0,1.8-0.2,2.4-0.5c0.7-0.3,1.2-0.6,1.8-1.2s0.9-1.1,1.2-1.8c0.2-0.6,0.4-1.4,0.5-2.4S20,12.7,20,10
				s0-3.1-0.1-4.1c0-1.1-0.2-1.8-0.5-2.4c-0.3-0.7-0.6-1.2-1.2-1.8c-0.6-0.6-1.1-0.9-1.8-1.2c-0.6-0.2-1.4-0.4-2.4-0.5S12.7,0,10,0
				S6.9,0,5.9,0.1C4.8,0.1,4.1,0.3,3.4,0.5z M14,1.9c1,0,1.5,0.2,1.9,0.3c0.5,0.2,0.8,0.4,1.2,0.7c0.3,0.3,0.6,0.7,0.7,1.2
				C17.9,4.5,18.1,5,18.1,6c0,1.1,0.1,1.4,0.1,4s0,3-0.1,4c0,1-0.2,1.5-0.3,1.9c-0.2,0.5-0.4,0.8-0.7,1.2s-0.7,0.6-1.2,0.7
				c-0.4,0.1-0.9,0.3-1.9,0.3c-1.1,0-1.4,0.1-4,0.1s-3,0-4-0.1c-1,0-1.5-0.2-1.9-0.3c-0.5-0.2-0.8-0.4-1.2-0.7
				c-0.3-0.3-0.6-0.7-0.7-1.2C2.1,15.5,1.9,15,1.9,14c0-1.1-0.1-1.4-0.1-4s0-3,0.1-4c0-1,0.2-1.5,0.3-1.9C2.4,3.6,2.6,3.3,2.9,3
				s0.7-0.6,1.2-0.7C4.5,2.1,5,1.9,6,1.9c1.1,0,1.4-0.1,4-0.1S13,1.8,14,1.9z"/>
			<path class="st0" d="M4.9,10c0,2.8,2.3,5.1,5.1,5.1s5.1-2.3,5.1-5.1S12.8,4.9,10,4.9S4.9,7.2,4.9,10z M13.3,10
				c0,1.8-1.5,3.3-3.3,3.3S6.7,11.8,6.7,10S8.2,6.7,10,6.7S13.3,8.2,13.3,10z"/>
			<circle class="st0" cx="15.3" cy="4.7" r="1.2"/>
		</g>
	</g>
</g>
</svg>
