<?xml version="1.0" encoding="utf-8"?>
<!-- Generator: Adobe Illustrator 26.5.0, SVG Export Plug-In . SVG Version: 6.00 Build 0)  -->
<svg version="1.1" id="Capa_1" xmlns="http://www.w3.org/2000/svg" xmlns:xlink="http://www.w3.org/1999/xlink" x="0px" y="0px"
	 viewBox="0 0 20 20" style="enable-background:new 0 0 20 20;" xml:space="preserve">
<style type="text/css">
	.st0{fill:#004987;}
</style>
<path class="st0" d="M18,5.9c0,0.2,0,0.4,0,0.5c0,5.4-4.1,11.7-11.7,11.7v0c-2.2,0-4.4-0.6-6.3-1.8c0.3,0,0.7,0.1,1,0.1
	c1.8,0,3.6-0.6,5.1-1.8c-1.8,0-3.3-1.2-3.8-2.8c0.6,0.1,1.2,0.1,1.9-0.1c-1.9-0.4-3.3-2.1-3.3-4V7.6C1.4,7.9,2,8.1,2.7,8.1
	C0.9,6.9,0.3,4.5,1.4,2.6c2.1,2.6,5.2,4.1,8.5,4.3C9.5,5.5,10,4,11,3c1.7-1.6,4.3-1.5,5.8,0.2c0.9-0.2,1.8-0.5,2.6-1
	c-0.3,0.9-0.9,1.8-1.8,2.3c0.8-0.1,1.6-0.3,2.4-0.6C19.4,4.6,18.8,5.3,18,5.9L18,5.9z"/>
</svg>
