<?xml version="1.0" encoding="utf-8"?>
<!-- Generator: Adobe Illustrator 26.5.0, SVG Export Plug-In . SVG Version: 6.00 Build 0)  -->
<svg version="1.1" id="Capa_1" xmlns="http://www.w3.org/2000/svg" xmlns:xlink="http://www.w3.org/1999/xlink" x="0px" y="0px"
	 viewBox="0 0 20 20" style="enable-background:new 0 0 20 20;" xml:space="preserve">
<style type="text/css">
	.st0{fill:#004987;}
</style>
<g>
	<path class="st0" d="M16.4,0H3.6C1.6,0,0,1.6,0,3.6v12.8c0,2,1.6,3.6,3.6,3.6h7.1v-7.7H8.1v-3h2.6V7.1c0-2.6,1.6-4,3.9-4
		c1.1,0,2,0.1,2.3,0.1v2.7h-1.6c-1.3,0-1.5,0.6-1.5,1.5v1.9h3l-0.4,3h-2.6V20h2.6c2,0,3.6-1.6,3.6-3.6V3.6C20,1.6,18.4,0,16.4,0z"/>
</g>
</svg>
