<?xml version="1.0" encoding="utf-8"?>
<!-- Generator: Adobe Illustrator 22.1.0, SVG Export Plug-In . SVG Version: 6.00 Build 0)  -->
<svg version="1.1" id="Capa_1" xmlns="http://www.w3.org/2000/svg" xmlns:xlink="http://www.w3.org/1999/xlink" x="0px" y="0px"
	 viewBox="0 0 145.7 15.2" style="enable-background:new 0 0 145.7 15.2;" xml:space="preserve">
<style type="text/css">
	.st0{fill:#004987;}
</style>
<title>logo-patagonia-movil</title>
<g id="Layer_2">
	<g id="Capa_1_1_">
		<g id="_Group_">
			<g id="_Group_2">
				<path id="_Compound_Path_" class="st0" d="M0,0.5h3.5c2.2,0,5.2,0,5.2,4c0,3.6-3.2,4-4.7,4H2.1v6.8H0V0.5z M2.1,6.7h1.5
					c1.6,0,2.7-0.4,2.7-2.2c0-2.2-1.6-2.3-2.7-2.3H2.1V6.7z"/>
				<polygon id="_Path_" class="st0" points="22.3,2.2 18.6,2.2 18.6,0.5 28.1,0.5 28.1,2.2 24.4,2.2 24.4,15.2 22.3,15.2 				"/>
				<path id="_Compound_Path_2" class="st0" d="M52.1,7.6c0-4,1.2-7.6,5.7-7.6s5.8,3.6,5.8,7.6s-1.2,7.6-5.8,7.6S52.1,11.6,52.1,7.6
					 M57.8,13.5c2.9,0,3.4-3.5,3.4-5.9s-0.5-5.9-3.4-5.9c-3,0-3.4,3.5-3.4,5.9S54.9,13.5,57.8,13.5"/>
				<polygon id="_Path_2" class="st0" points="65.3,0.5 68,0.5 73.8,12 73.9,12 73.9,0.5 75.8,0.5 75.8,15.2 73.3,15.2 67.3,3.4 
					67.3,3.4 67.3,15.2 65.3,15.2 				"/>
				<rect id="_Path_3" x="78" y="0.5" class="st0" width="2.1" height="14.7"/>
				<path id="_Path_4" class="st0" d="M45.2,8.1h3.2v4.8c-0.8,0.4-1.6,0.6-2.5,0.6c-3.4,0-3.8-3.5-3.8-6.4c0-2.7,0.6-5.5,3.4-5.5
					c0.9-0.1,1.8,0.4,2.3,1.2l1.6-1.5c-1-0.9-2.4-1.4-3.8-1.4c-4.2,0-5.8,3.1-5.8,7.1c0,5.7,2.4,8,6.2,8c1.6,0,3.1-0.5,4.4-1.4V6.4
					h-5.1V8.1z"/>
				<polygon id="_Path_5" class="st0" points="20,15.2 14.9,0.5 12.3,0.5 7.3,15.2 9.5,15.2 13.6,2.4 13.7,2.4 15.5,8.4 13.7,8.4 
					13.1,10.1 16.1,10.1 17.7,15.2 				"/>
				<polygon id="_Path_6" class="st0" points="94,15.2 88.9,0.5 86.3,0.5 81.3,15.2 83.6,15.2 87.6,2.4 87.7,2.4 89.5,8.4 87.7,8.4 
					87.1,10.1 90.1,10.1 91.7,15.2 				"/>
				<polygon id="_Path_7" class="st0" points="39.5,15.2 34.4,0.5 31.8,0.5 26.8,15.2 29.1,15.2 33.1,2.4 33.2,2.4 35,8.4 33.2,8.4 
					32.6,10.1 35.6,10.1 37.2,15.2 				"/>
			</g>
		</g>
		<path class="st0" d="M113.7,1.8v11.6h1.1v1.4h-4v-1.4h1.1v-8c0-1,0-1.7,0.1-2.7h-0.1l-1,2.2l-3.3,8H106l-3.4-8
			c-0.3-0.7-0.6-1.5-0.9-2.2h-0.1c0.1,1,0.1,1.6,0.1,2.7v8.1h1.1v1.4h-4v-1.4h1.1V1.9h-1.1V0.5h3.5l3.7,8.8c0.3,0.6,0.6,1.4,0.8,2
			h0.1c0.3-0.7,0.5-1.4,0.8-2l3.7-8.7h3.4v1.3H113.7z"/>
		<path class="st0" d="M115.8,9.8c0-4.1,1.9-5.3,4.6-5.3c2.5,0,4.2,1.1,4.2,5c0,4.2-1.8,5.5-4.4,5.5
			C117.6,15.1,115.8,13.8,115.8,9.8z M122.3,13c0.5-1.1,0.7-2.3,0.6-3.4c0-1.6-0.2-2.6-0.9-3.2c-0.5-0.4-1.1-0.6-1.7-0.6
			c-0.7,0-1.5,0.2-2.1,0.6c-0.6,1-0.8,2.2-0.7,3.4c-0.1,1.1,0.1,2.2,0.7,3.1c0.5,0.6,1.2,0.9,2,0.8C121,13.8,121.7,13.5,122.3,13z
			 M118.7,2.6c0.7-1.2,1.7-2.1,3-2.6c0.5,0.2,0.9,0.7,0.9,1.3l-3.4,2L118.7,2.6z"/>
		<path class="st0" d="M135.3,6h-1.1l-2.9,8.9h-2.1L126.5,6h-0.9V4.7c0.4-0.1,0.9-0.2,1.3-0.2c0.8,0,1.1,0.3,1.3,1.1l1.8,5.9
			c0.2,0.6,0.3,1.2,0.5,1.8h0.2c0.1-0.6,0.3-1.2,0.5-1.8l1.7-5.5h-1.1V4.7h3.7L135.3,6z"/>
		<path class="st0" d="M137.2,13.6V6h-0.9V4.7h2.6v8.9l1,0.1v0.9c-0.5,0.2-1.1,0.3-1.7,0.3C137.2,15.1,137.2,14.1,137.2,13.6z
			 M137,2.6c-0.1-0.3-0.1-0.7-0.1-1c0-0.3,0-0.6,0.1-0.9c0.3-0.1,0.7-0.2,1.1-0.2c0.3,0,0.7,0.1,1,0.2c0.1,0.3,0.1,0.6,0.1,1
			c0,0.3,0,0.6-0.1,0.9c-0.3,0.1-0.6,0.2-1,0.2C137.7,2.8,137.3,2.7,137,2.6z"/>
		<path class="st0" d="M142.5,13.6V1.8h-1V0.5h2.7v13.1l1.5,0.1v0.9c-0.7,0.2-1.4,0.3-2.1,0.3C142.8,15.1,142.5,14.7,142.5,13.6z"/>
	</g>
</g>
</svg>
